<?xml version="1.0" encoding="UTF-8" standalone="no"?>
<!-- Created with Inkscape (http://www.inkscape.org/) -->

<svg
   width="100mm"
   height="100mm"
   viewBox="0 0 100 100"
   version="1.1"
   id="svg1"
   xml:space="preserve"
   inkscape:version="1.3.2 (091e20e, 2023-11-25)"
   sodipodi:docname="icon_monochrome.svg"
   inkscape:export-filename="icon.png"
   inkscape:export-xdpi="96"
   inkscape:export-ydpi="96"
   xmlns:inkscape="http://www.inkscape.org/namespaces/inkscape"
   xmlns:sodipodi="http://sodipodi.sourceforge.net/DTD/sodipodi-0.dtd"
   xmlns="http://www.w3.org/2000/svg"
   xmlns:svg="http://www.w3.org/2000/svg"><sodipodi:namedview
     id="namedview1"
     pagecolor="#ffffff"
     bordercolor="#000000"
     borderopacity="0.25"
     inkscape:showpageshadow="2"
     inkscape:pageopacity="0.0"
     inkscape:pagecheckerboard="false"
     inkscape:deskcolor="#d1d1d1"
     inkscape:document-units="mm"
     inkscape:zoom="1.0771772"
     inkscape:cx="100.72623"
     inkscape:cy="257.61778"
     inkscape:window-width="1920"
     inkscape:window-height="1052"
     inkscape:window-x="0"
     inkscape:window-y="0"
     inkscape:window-maximized="1"
     inkscape:current-layer="layer1" /><defs
     id="defs1" /><g
     inkscape:label="Layer 1"
     inkscape:groupmode="layer"
     id="layer1"><path
       id="path1"
       style="fill:#f9f9f9;fill-opacity:1;stroke-width:0.355174"
       d="M 64.454464 5.9458903 C 63.484493 5.9304123 62.455986 5.9341157 61.365763 5.9603597 C 48.776065 6.264092 36.525008 10.230382 31.399634 14.874028 C 26.274269 19.517685 21.916883 21.233867 22.104594 29.577523 C 17.649987 33.964285 4.9376831 40.064221 4.9376831 40.064221 C 4.9376831 40.064221 -1.7952267 47.694423 7.1220459 48.54484 C 15.979665 49.551391 25.203308 51.85021 32.901868 56.419812 C 32.896069 56.41637 32.890615 56.412399 32.884814 56.40896 C 32.94656 55.099525 32.999614 53.824622 33.058964 52.517725 C 33.782349 36.586053 33.658813 22.00259 35.68516 20.611662 C 38.164625 18.909688 50.73949 28.863336 63.92168 36.661845 C 77.103842 44.460352 87.507971 50.984015 87.576567 53.841158 C 87.650935 56.938239 78.297681 62.928555 65.686947 70.801363 C 59.847121 74.44716 53.914587 78.172442 48.738627 81.169206 C 48.739164 81.163324 48.739127 81.158029 48.739661 81.152153 C 48.533992 83.415969 48.107752 86.004298 47.401758 89.066398 C 46.043211 95.455503 43.399584 102.51801 40.499337 109.09102 C 44.462318 109.95911 48.503458 110.42147 52.560099 110.47129 C 68.875483 110.41969 83.48792 115.69469 94.730652 103.87118 C 95.783582 97.387918 97.862045 76.224794 97.159961 68.870215 C 95.948951 56.184388 95.772544 43.342899 87.552795 30.774349 C 85.647689 24.857958 88.284679 17.318771 80.41473 10.809676 C 80.41473 10.809676 79.003876 6.1780379 64.454464 5.9458903 z M 34.187577 57.215112 C 34.313816 57.2962 34.43796 57.380231 34.563265 57.462642 C 34.437881 57.380333 34.313882 57.296119 34.187577 57.215112 z M 36.448421 58.780908 C 36.691796 58.961726 36.93645 59.14063 37.175509 59.327128 C 36.936157 59.141013 36.692069 58.961375 36.448421 58.780908 z M 38.015767 60.003056 C 38.39679 60.318204 38.772204 60.640708 39.140763 60.971472 C 38.771616 60.641239 38.397401 60.317641 38.015767 60.003056 z M 39.716439 61.493404 C 40.176592 61.924665 40.625393 62.369735 41.063643 62.827173 C 40.624995 62.370305 40.177129 61.923877 39.716439 61.493404 z M 41.502376 63.293294 C 42.002653 63.8352 42.49408 64.387474 42.962236 64.96606 C 42.494022 64.387403 42.003077 63.834699 41.502376 63.293294 z M 42.962236 64.96606 C 43.579915 65.595886 44.151107 66.212773 44.687195 66.83468 C 44.152131 66.21263 43.57926 65.595218 42.962236 64.96606 z M 44.957463 67.15249 C 45.079757 67.298877 45.197162 67.446344 45.314547 67.593807 C 45.197539 67.446391 45.079382 67.298804 44.957463 67.15249 z M 45.697469 68.083183 C 45.767778 68.176963 45.831767 68.273373 45.900041 68.36792 C 45.831955 68.273301 45.767592 68.177027 45.697469 68.083183 z M 46.693274 69.569914 C 46.738569 69.645197 46.786191 69.71917 46.830216 69.795223 C 46.786338 69.719096 46.738421 69.64527 46.693274 69.569914 z M 47.205904 70.494405 C 47.246168 70.57332 47.28583 70.652744 47.32476 70.732633 C 47.285991 70.652709 47.246003 70.573358 47.205904 70.494405 z M 47.675126 71.506746 C 47.687118 71.535598 47.697924 71.565605 47.709749 71.594596 C 47.69797 71.565574 47.687071 71.535629 47.675126 71.506746 z M 48.736043 75.710624 C 48.737045 75.719171 48.737635 75.727903 48.738627 75.736462 C 48.737642 75.727898 48.737039 75.719177 48.736043 75.710624 z " /></g></svg>
