<?xml version="1.0" encoding="UTF-8" standalone="no"?>
<!-- Created with Inkscape (http://www.inkscape.org/) -->

<svg
   width="100mm"
   height="100mm"
   viewBox="0 0 100 100"
   version="1.1"
   id="svg1"
   xml:space="preserve"
   inkscape:version="1.3.2 (091e20e, 2023-11-25)"
   sodipodi:docname="icon.svg"
   inkscape:export-filename="icon.png"
   inkscape:export-xdpi="96"
   inkscape:export-ydpi="96"
   xmlns:inkscape="http://www.inkscape.org/namespaces/inkscape"
   xmlns:sodipodi="http://sodipodi.sourceforge.net/DTD/sodipodi-0.dtd"
   xmlns="http://www.w3.org/2000/svg"
   xmlns:svg="http://www.w3.org/2000/svg"><sodipodi:namedview
     id="namedview1"
     pagecolor="#ffffff"
     bordercolor="#000000"
     borderopacity="0.25"
     inkscape:showpageshadow="2"
     inkscape:pageopacity="0.0"
     inkscape:pagecheckerboard="false"
     inkscape:deskcolor="#d1d1d1"
     inkscape:document-units="mm"
     inkscape:zoom="1.5233586"
     inkscape:cx="172.97306"
     inkscape:cy="225.4886"
     inkscape:window-width="1920"
     inkscape:window-height="1052"
     inkscape:window-x="0"
     inkscape:window-y="0"
     inkscape:window-maximized="1"
     inkscape:current-layer="layer1" /><defs
     id="defs1" /><g
     inkscape:label="Layer 1"
     inkscape:groupmode="layer"
     id="layer1"><path
       id="path1"
       style="fill:#673ab7;fill-opacity:1;stroke-width:0.355174"
       d="m 64.454237,5.9459876 c -0.969972,-0.015478 -1.998136,-0.011679 -3.08836,0.014565 -12.589711,0.3037326 -24.84107,4.2697014 -29.966449,8.9133514 -5.12537,4.643662 -9.482596,6.359999 -9.294885,14.703663 -4.454611,4.386767 -17.1669939,10.486661 -17.1669939,10.486661 0,0 -6.7328201,7.630072 2.1844614,8.48049 13.2308025,1.503504 27.2967255,5.86276 35.8400085,16.421258 5.25837,5.361767 7.735914,9.803806 4.43968,24.10053 -1.358548,6.389111 -4.002064,13.451334 -6.902314,20.024344 3.962985,0.8681 8.004028,1.33064 12.060673,1.38046 16.3154,-0.0516 30.928064,5.22334 42.170807,-6.60018 1.052931,-6.483268 3.131318,-27.646423 2.429233,-35.00101 C 95.949087,56.18428 95.772803,43.342763 87.553046,30.7742 85.647938,24.857803 88.284837,17.318617 80.41488,10.809516 c 0,0 -1.411216,-4.6313833 -15.960643,-4.8635311 z"
       sodipodi:nodetypes="sccccccccccsccss" /><path
       id="path5"
       style="display:inline;fill:#a62ddb;fill-opacity:1;stroke-width:0.7545"
       d="m 32.88464,56.409185 c 3.807972,2.257875 7.249195,5.061486 10.077379,8.556791 4.135009,4.216318 6.535991,7.885342 5.776439,16.203442 C 53.914423,78.172651 59.847109,74.447179 65.68694,70.801378 78.297687,62.928562 87.651001,56.938194 87.576632,53.84111 87.508036,50.983964 77.103643,44.460143 63.921468,36.661628 50.739265,28.863111 38.164573,18.909524 35.685106,20.611499 c -2.026349,1.39093 -1.902962,15.974351 -2.626348,31.906039 -0.05935,1.306899 -0.112372,2.582211 -0.174118,3.891647 z" /></g></svg>
